# xmcd
#
# Track frame offsets:
#	150
#	22522
#	37106
#	50715
#	62596
#	79855
#	102812
#	118218
#	136396
#	149308
#
# Disc length: 2277 seconds
#
# Revision: 0
# Processed by: cddbd v1.5.2PL0 Copyright (c) Steve Scherf et al.
# Submitted via: MusicWizard 7.2.0
#
DISCID=8608e30a
DTITLE=Various Artist - BRIDGE OVER TROUBLED Water Simon And Garfunkel
DYEAR=1900
DGENRE=Pop
TTITLE0=Simon And Garfunkel - Track 1
TTITLE1=Importiert - Track 2
TTITLE2=Importiert - Track 3
TTITLE3=Importiert - Track 4
TTITLE4=Importiert - Track 5
TTITLE5=Importiert - Track 6
TTITLE6=Importiert - Track 7
TTITLE7=Importiert - Track 8
TTITLE8=Importiert - Track 9
TTITLE9=Importiert - Track 10
EXTD=
EXTT0=
EXTT1=
EXTT2=
EXTT3=
EXTT4=
EXTT5=
EXTT6=
EXTT7=
EXTT8=
EXTT9=
PLAYORDER=
